<?xml version="1.0" standalone="no"?>
<!DOCTYPE svg PUBLIC "-//W3C//DTD SVG 20010904//EN"
 "http://www.w3.org/TR/2001/REC-SVG-20010904/DTD/svg10.dtd">
<svg version="1.0" xmlns="http://www.w3.org/2000/svg"
 width="300.000000pt" height="158.000000pt" viewBox="0 0 300.000000 158.000000"
 preserveAspectRatio="xMidYMid meet">
<metadata>
Created by potrace 1.10, written by Peter Selinger 2001-2011
</metadata>
<g transform="translate(0.000000,158.000000) scale(0.100000,-0.100000)"
fill="#000000" stroke="none">
<path d="M1188 1413 c-25 -30 -39 -83 -45 -178 -5 -74 -12 -103 -40 -160 -18
-38 -33 -77 -33 -86 0 -14 -7 -16 -42 -12 l-43 4 24 -20 c13 -12 32 -21 42
-21 10 0 19 -7 19 -15 0 -9 -9 -15 -24 -15 -22 0 -56 -23 -56 -37 0 -3 18 -3
40 -1 28 2 41 -1 45 -11 3 -7 4 -15 3 -15 -2 -1 -15 -7 -30 -14 -41 -17 -36
-36 7 -28 31 6 38 3 67 -30 17 -20 56 -49 85 -66 l53 -30 0 -177 c0 -209 2
-214 75 -209 l50 3 5 83 c3 45 8 82 13 82 4 0 14 0 23 0 13 0 15 -13 12 -82
-3 -82 -3 -82 26 -97 20 -9 37 -11 54 -5 44 16 36 30 -15 30 l-48 -1 3 72 c3
62 1 74 -17 92 -25 25 -30 25 -55 6 -15 -11 -18 -26 -17 -84 1 -67 0 -71 -23
-77 -54 -13 -57 -3 -62 191 -2 117 -8 183 -16 192 -6 8 -31 24 -54 34 -50 24
-114 90 -114 118 0 11 -5 23 -11 26 -6 4 -7 19 -4 35 4 17 2 31 -5 35 -8 5 -7
12 3 23 8 10 17 31 20 49 4 18 18 50 32 73 18 29 25 53 25 92 0 71 26 187 46
209 15 17 18 17 43 2 33 -21 49 -37 86 -88 48 -64 63 -72 143 -79 80 -8 88 -5
147 51 17 15 52 39 77 52 41 22 48 23 63 11 16 -13 17 -27 11 -115 -13 -174
-12 -189 24 -307 5 -17 4 -30 -2 -34 -5 -4 -8 -17 -5 -30 2 -13 -2 -29 -9 -35
-8 -6 -14 -18 -14 -25 0 -8 -9 -23 -20 -34 -30 -30 -25 -45 29 -83 54 -39 90
-101 98 -170 7 -62 21 -93 50 -108 28 -15 53 -57 53 -91 0 -33 -34 -85 -67
-102 -61 -31 -236 -44 -275 -20 -22 14 9 20 96 21 107 2 154 18 186 63 25 36
25 62 0 85 -19 18 -23 18 -48 3 -43 -25 -131 -47 -207 -50 -61 -3 -70 -1 -73
15 -3 13 7 22 35 34 31 13 43 26 69 79 17 35 29 64 27 64 -24 0 -72 -34 -87
-62 -10 -19 -32 -43 -48 -54 -16 -10 -31 -30 -35 -43 -10 -39 18 -51 116 -51
103 1 166 13 205 42 23 17 30 18 37 7 20 -31 -1 -65 -54 -90 -32 -14 -66 -19
-138 -19 -112 0 -133 -11 -105 -55 16 -24 21 -25 106 -25 123 0 179 14 229 56
76 65 75 155 -2 206 -31 20 -36 29 -41 78 -11 97 -63 180 -141 226 -12 6 -16
15 -11 23 8 12 25 11 78 -5 12 -4 15 0 11 15 -3 11 -16 22 -30 26 -39 9 -21
30 26 28 22 -1 41 2 41 6 0 15 -25 31 -47 31 -16 0 -23 6 -23 19 0 15 8 21 32
23 41 4 50 28 11 28 -27 0 -30 4 -47 73 -22 87 -22 82 -7 186 12 81 8 148 -11
184 -22 41 -104 10 -196 -75 l-40 -37 -63 9 c-35 5 -69 10 -76 10 -6 0 -34 29
-63 65 -74 95 -130 125 -162 88z"/>
<path d="M1216 1343 c-36 -36 -47 -140 -18 -166 24 -22 36 -21 87 4 61 31 73
58 46 102 -33 54 -91 83 -115 60z m80 -49 c19 -19 34 -41 34 -49 0 -16 -53
-50 -92 -60 -21 -5 -27 -3 -33 15 -8 24 1 84 16 112 15 27 38 22 75 -18z"/>
<path d="M1648 1267 c-24 -18 -44 -42 -46 -53 -4 -30 72 -104 107 -104 33 0
51 32 51 94 0 103 -34 122 -112 63z m90 -52 c3 -83 -7 -96 -54 -70 -20 11 -44
30 -52 43 -15 24 -15 26 22 59 24 22 45 33 59 31 20 -3 22 -10 25 -63z"/>
<path d="M1226 988 c-9 -12 -16 -29 -16 -38 0 -27 30 -60 54 -60 49 0 75 70
38 103 -26 23 -58 21 -76 -5z m61 -4 c-3 -4 -2 -14 2 -23 12 -22 -12 -56 -34
-47 -9 3 -13 10 -10 16 3 5 0 10 -7 10 -10 0 -10 2 1 9 8 5 10 14 6 21 -5 9
-4 11 3 6 7 -4 12 -2 12 3 0 6 8 11 17 11 9 0 13 -3 10 -6z"/>
<path d="M1579 959 c-29 -29 -23 -79 14 -99 27 -14 29 -14 53 13 30 35 30 52
-1 82 -29 30 -39 31 -66 4z m51 -25 c13 -13 4 -40 -16 -48 -16 -6 -36 26 -28
47 6 16 28 17 44 1z"/>
<path d="M1390 875 c-11 -13 -10 -21 1 -43 7 -15 15 -31 17 -36 3 -5 -16 -7
-42 -4 -33 4 -46 2 -46 -7 0 -23 27 -35 86 -39 33 -2 64 -5 69 -6 24 -5 41 1
54 21 12 21 12 22 -18 16 -56 -11 -82 15 -41 41 28 17 25 50 -6 62 -36 14 -60
12 -74 -5z m76 -27 c4 4 2 -1 -5 -11 -11 -14 -16 -15 -29 -5 -13 11 -14 11 -7
-1 5 -10 4 -12 -3 -7 -16 10 -15 33 1 39 6 3 17 -1 23 -9 6 -8 15 -10 20 -6z"/>
</g>
</svg>
